<?xml version="1.0" encoding="UTF-8" standalone="no"?>
<svg
   xmlns:dc="http://purl.org/dc/elements/1.1/"
   xmlns:cc="http://creativecommons.org/ns#"
   xmlns:rdf="http://www.w3.org/1999/02/22-rdf-syntax-ns#"
   xmlns:svg="http://www.w3.org/2000/svg"
   xmlns="http://www.w3.org/2000/svg"
   version="1.1"
   id="svg987"
   xml:space="preserve"
   width="200.70308"
   height="161.33527"
   viewBox="0 0 200.70308 161.33527"><metadata
     id="metadata993"><rdf:RDF><cc:Work
         rdf:about=""><dc:format>image/svg+xml</dc:format><dc:type
           rdf:resource="http://purl.org/dc/dcmitype/StillImage" /><dc:title></dc:title></cc:Work></rdf:RDF></metadata><defs
     id="defs991"><clipPath
       clipPathUnits="userSpaceOnUse"
       id="clipPath1007"><path
         d="M 0,595.28 H 841.89 V 0 H 0 Z"
         id="path1005" /></clipPath></defs><g
     id="g995"
     transform="matrix(1.3333333,0,0,-1.3333333,-203.63319,498.60709)"><g
       style="opacity:0.3"
       id="g1045"
       transform="translate(301.2718,304.6255)"><path
         d="m 0,0 c -1.052,1.823 -2.438,3.329 -4.031,4.501 l 0.005,0.003 c 0,0 -3.402,2.359 -7.374,5.96 -3.436,3.116 -7.298,7.16 -9.755,11.415 -2.457,4.255 -4.028,9.622 -5.008,14.155 -1.133,5.24 -1.474,9.366 -1.474,9.366 l -0.006,-0.003 c -0.219,1.966 -0.83,3.92 -1.882,5.742 -1.019,1.766 -2.348,3.241 -3.878,4.397 -0.765,0.578 -1.581,1.076 -2.433,1.491 -0.852,0.415 -1.741,0.746 -2.653,0.991 -0.913,0.244 -1.848,0.401 -2.794,0.468 -0.945,0.067 -1.9,0.043 -2.852,-0.075 -1.903,-0.236 -3.791,-0.849 -5.556,-1.868 -0.452,-0.261 -0.884,-0.544 -1.297,-0.843 -0.054,-0.039 -0.101,-0.084 -0.154,-0.123 -0.36,-0.269 -0.709,-0.547 -1.039,-0.843 -0.017,-0.016 -0.033,-0.033 -0.05,-0.049 -0.734,-0.665 -1.388,-1.394 -1.961,-2.174 h -10e-4 l -0.003,0.006 c 0,0 -8.2,-11.832 -17.374,-17.129 -7.453,-4.079 -18.616,-4.999 -24.26,-6.364 -2.781,-0.725 -4.357,-1.635 -5.001,-2.006 -7.061,-4.077 -9.48,-13.106 -5.403,-20.167 4.076,-7.061 13.105,-9.48 20.166,-5.403 0.644,0.371 2.22,1.281 4.238,3.327 4.004,4.205 10.382,13.413 17.641,17.828 0.835,0.508 1.738,0.942 2.657,1.363 5.009,2.056 10.453,2.131 15.359,0.516 4.109,-1.353 7.842,-3.887 10.614,-7.475 0.585,-0.825 1.13,-1.663 1.619,-2.509 0.489,-0.847 0.942,-1.738 1.363,-2.658 1.722,-4.194 2.05,-8.694 1.167,-12.928 -1.054,-5.057 -3.841,-9.734 -8.126,-13.044 -0.824,-0.586 -1.652,-1.15 -2.509,-1.62 -7.453,-4.078 -18.616,-4.998 -24.26,-6.363 -2.781,-0.725 -4.357,-1.635 -5,-2.007 -7.061,-4.076 -9.481,-13.105 -5.404,-20.166 4.077,-7.061 13.105,-9.48 20.166,-5.403 1.823,1.052 3.329,2.438 4.501,4.031 l 0.003,-0.005 c 0,0 8.201,11.832 17.375,17.129 9.175,5.296 23.522,6.482 23.522,6.482 l -0.003,0.006 c 1.965,0.218 3.919,0.83 5.742,1.882 C 1.657,-16.09 4.077,-7.061 0,0"
         style="fill:#0090cb;fill-opacity:1;fill-rule:nonzero;stroke:none"
         id="path1047" /></g><g
       style="opacity:0.3"
       id="g1049"
       transform="translate(249.1033,293.0124)"><path
         d="m 0,0 c 0,0 3.592,0.614 6.433,2.254 7.061,4.077 9.48,13.105 5.403,20.166 C 7.76,29.481 -1.269,31.9 -8.33,27.824 -11.171,26.183 -13.498,23.38 -13.498,23.38 -19.555,16.647 -21.75,12.14 -30.209,6.669 -31.056,6.18 -31.947,5.726 -32.866,5.305 -37.875,3.249 -43.319,3.175 -48.226,4.79 c -4.106,1.351 -7.836,3.883 -10.608,7.467 -0.587,0.827 -1.134,1.668 -1.624,2.517 -0.49,0.849 -0.945,1.743 -1.367,2.665 -1.715,4.184 -2.044,8.671 -1.168,12.896 1.057,5.05 3.851,9.762 8.131,13.068 0.824,0.586 1.652,1.151 2.509,1.62 7.453,4.079 18.616,4.999 24.26,6.363 2.781,0.726 4.357,1.636 5,2.007 7.061,4.077 9.481,13.106 5.404,20.166 -4.077,7.061 -13.105,9.48 -20.166,5.404 -1.823,-1.052 -3.329,-2.439 -4.501,-4.032 l -0.003,0.006 c 0,0 -8.201,-11.832 -17.375,-17.129 -9.174,-5.297 -23.522,-6.483 -23.522,-6.483 l 0.003,-0.005 c -1.965,-0.219 -3.919,-0.83 -5.742,-1.882 -7.06,-4.077 -9.48,-13.106 -5.403,-20.167 1.052,-1.822 2.438,-3.328 4.032,-4.501 l -0.006,-0.003 c 0,0 3.402,-2.359 7.374,-5.96 3.436,-3.115 7.298,-7.159 9.755,-11.415 2.457,-4.255 4.028,-9.622 5.008,-14.155 1.133,-5.24 1.474,-9.366 1.474,-9.366 l 0.006,0.003 c 0.007,-0.062 0.006,-0.124 0.014,-0.185 0.236,-1.903 0.849,-3.792 1.868,-5.557 4.077,-7.061 13.106,-9.48 20.166,-5.403 0.452,0.261 0.884,0.543 1.297,0.843 0.054,0.039 0.101,0.083 0.154,0.123 0.36,0.268 0.709,0.547 1.039,0.842 0.018,0.016 0.033,0.035 0.051,0.051 0.733,0.664 1.387,1.393 1.96,2.172 h 0.001 l 0.003,-0.005 c 0,0 7.944,12.302 17.374,17.129 C -13.86,-1.526 -8.859,-1.879 0,0"
         style="fill:#0090cb;fill-opacity:1;fill-rule:nonzero;stroke:none"
         id="path1051" /></g></g></svg>